<?xml version="1.0" encoding="UTF-8"?>
<svg version="1.1" xmlns="http://www.w3.org/2000/svg" width="1536" height="1024">
<path d="M0 0 C506.88 0 1013.76 0 1536 0 C1536 337.92 1536 675.84 1536 1024 C1029.12 1024 522.24 1024 0 1024 C0 686.08 0 348.16 0 0 Z " fill="#F6F5F6" transform="translate(0,0)"/>
<path d="M0 0 C2.11062274 1.86620008 4.14777179 3.75966629 6.12109375 5.76953125 C7.71622523 0.9841368 7.7021917 -4.20364415 8.12109375 -9.23046875 C23.96109375 -9.23046875 39.80109375 -9.23046875 56.12109375 -9.23046875 C55.48544004 0.30433697 54.76902191 9.6961442 53.6328125 19.1640625 C53.48956543 20.38363144 53.34631836 21.60320038 53.19873047 22.85972595 C52.81722513 26.10191592 52.43248062 29.34369905 52.04610825 32.58531189 C51.64562523 35.95206298 51.24940219 39.31931535 50.8527832 42.68652344 C50.22817649 47.98543964 49.60128585 53.28407902 48.97265625 58.58251953 C48.25634305 64.6220988 47.54566881 70.66231189 46.83984375 76.703125 C46.65927302 78.24699033 46.47869093 79.79085433 46.2980957 81.3347168 C46.21532379 82.04236176 46.13255188 82.75000671 46.04727173 83.47909546 C44.33331906 98.13151704 44.33331906 98.13151704 43.60351562 103.84082031 C42.76188789 110.4284505 41.96276402 117.00379114 41.4387207 123.62597656 C39.14235608 152.16027154 32.00397698 177.90494158 9.76855469 197.44433594 C4.98502041 201.29214626 -0.41246705 204.03312236 -5.87890625 206.76953125 C-6.74644531 207.25035156 -7.61398437 207.73117187 -8.5078125 208.2265625 C-33.11147278 220.97118152 -71.89529263 220.36271484 -97.87890625 212.64453125 C-109.21790074 208.99886092 -123.40398162 203.32594554 -131.87890625 194.76953125 C-131.87890625 190.27106178 -131.87890625 190.27106178 -129.28125 187.59765625 C-128.73033691 187.01967285 -128.17942383 186.44168945 -127.61181641 185.84619141 C-127.01933105 185.24339355 -126.4268457 184.6405957 -125.81640625 184.01953125 C-124.6138075 182.76246051 -123.41197795 181.50465342 -122.2109375 180.24609375 C-121.63166504 179.64442383 -121.05239258 179.04275391 -120.45556641 178.42285156 C-117.48208463 175.30479356 -114.68836575 172.03438942 -111.87890625 168.76953125 C-110.56750968 167.26856646 -109.25501522 165.76856018 -107.94140625 164.26953125 C-107.06162109 163.2640625 -107.06162109 163.2640625 -106.1640625 162.23828125 C-105.73996094 161.75359375 -105.31585937 161.26890625 -104.87890625 160.76953125 C-101.63084129 162.29536642 -98.73612579 164.15348672 -95.75390625 166.14453125 C-80.38108812 175.93833988 -60.32913586 178.89306536 -42.40087891 175.26855469 C-31.68034137 172.30247054 -22.36766078 166.9619335 -15.87890625 157.76953125 C-11.74157193 150.28773156 -9.69701202 142.31856025 -9.87890625 133.76953125 C-10.47316406 134.21683594 -11.06742188 134.66414062 -11.6796875 135.125 C-28.49307107 147.38857215 -47.51689164 151.23754397 -68.05859375 148.4765625 C-81.9554386 145.96215283 -94.47487026 139.16310331 -104.87890625 129.76953125 C-105.513125 129.20492187 -106.14734375 128.6403125 -106.80078125 128.05859375 C-120.83343828 114.83312496 -128.34678657 96.12230311 -129.296875 77.0859375 C-129.6850786 63.79825716 -129.33745231 52.00990726 -123.87890625 39.76953125 C-123.61658203 39.15980469 -123.35425781 38.55007813 -123.08398438 37.921875 C-113.69193526 16.34493724 -96.28233988 0.96524954 -74.87890625 -8.23046875 C-50.28972582 -16.76193492 -21.31625493 -16.51503605 0 0 Z " fill="#44C4A4" transform="translate(1372.87890625,386.23046875)"/>
<path d="M0 0 C0.34080275 9.384698 -0.72967553 18.52320904 -1.875 27.8125 C-3.03322987 37.3289688 -4.10746665 46.84033521 -4.94921875 56.390625 C-6.00431996 68.36016285 -7.26795239 80.30496328 -8.54406738 92.25268555 C-10.46954991 110.2863857 -12.39319463 128.31913255 -14.06225586 146.37866211 C-14.82443283 154.54591751 -15.76653429 162.68508826 -16.7411499 170.82904053 C-19.68525791 195.52108904 -22.03246545 220.20906473 -24 245 C-39.18 245 -54.36 245 -70 245 C-70 240.05 -70 235.1 -70 230 C-70.84820313 230.65226563 -71.69640625 231.30453125 -72.5703125 231.9765625 C-86.39980637 242.37705875 -101.47829482 248.90096831 -119 250 C-119.96679688 250.07605469 -120.93359375 250.15210938 -121.9296875 250.23046875 C-141.75282511 251.07741574 -160.35621899 243.33236073 -174.921875 230.078125 C-184.00116338 221.31621499 -189.69705698 210.74587148 -194 199 C-194.3609375 198.0203125 -194.721875 197.040625 -195.09375 196.03125 C-201.57499029 174.35261869 -196.77638503 150.45572193 -186.40625 131.01171875 C-182.55111489 124.11628391 -178.20880241 117.93606917 -173 112 C-172.35804688 111.26265625 -171.71609375 110.5253125 -171.0546875 109.765625 C-153.88799263 91.35875066 -130.91605489 82.46395926 -106.125 81.5 C-89.14777939 81.88584592 -71.83380304 87.79679974 -59 99 C-57.38485318 83.96313197 -56.03338201 68.92281107 -54.98046875 53.8359375 C-54.85072159 51.98691582 -54.85072159 51.98691582 -54.71835327 50.10054016 C-54.28179539 43.84831507 -53.85718936 37.59551508 -53.44628906 31.34155273 C-53.28605041 29.00502889 -53.12557881 26.668521 -52.96484375 24.33203125 C-52.89718307 23.24783905 -52.8295224 22.16364685 -52.7598114 21.04660034 C-52.68946182 20.04484772 -52.61911224 19.04309509 -52.54663086 18.01098633 C-52.48906113 17.13630203 -52.43149139 16.26161774 -52.37217712 15.36042786 C-51.97675956 12.85260409 -51.35762674 11.14036396 -50 9 C-47.79541016 8.15039062 -47.79541016 8.15039062 -45.0390625 7.65625 C-44.0190918 7.46377686 -42.99912109 7.27130371 -41.94824219 7.07299805 C-40.85157227 6.88390869 -39.75490234 6.69481934 -38.625 6.5 C-36.35148921 6.07982347 -34.07805269 5.65924488 -31.8046875 5.23828125 C-30.66354492 5.03283691 -29.52240234 4.82739258 -28.34667969 4.61572266 C-22.63909416 3.56564017 -16.96220196 2.3641547 -11.28369141 1.16796875 C-10.52491699 1.01328125 -9.76614258 0.85859375 -8.984375 0.69921875 C-8.33178711 0.56346436 -7.67919922 0.42770996 -7.00683594 0.2878418 C-4.6525962 -0.04982836 -2.375083 -0.04611061 0 0 Z " fill="#1A1E22" transform="translate(598,292)"/>
<path d="M0 0 C14.95770903 14.16667634 25.20253646 31.01092998 26.0859375 52.0703125 C26.27404387 63.85214411 25.69205333 74.45538326 21.75 85.625 C21.50330566 86.32850586 21.25661133 87.03201172 21.00244141 87.75683594 C16.19859791 101.06840716 9.54420474 112.01358745 -0.171875 122.390625 C-1.91951418 124.26966562 -3.52597003 126.18411762 -5.125 128.1875 C-9.24054753 132.99267982 -14.28328742 136.74650741 -19.25 140.625 C-19.9217627 141.1504541 -20.59352539 141.6759082 -21.28564453 142.21728516 C-27.87153748 147.36219237 -34.47043807 152.49045157 -41.09765625 157.58203125 C-61.49101056 173.05450169 -61.49101056 173.05450169 -72.25 195.625 C-72.91 200.905 -73.57 206.185 -74.25 211.625 C-93.72 211.625 -113.19 211.625 -133.25 211.625 C-133.25 180.25751333 -127.59281914 161.16251416 -106.0625 139.25 C-101.75743267 135.07460337 -97.23158468 131.17562362 -92.67578125 127.27832031 C-82.97332541 118.96582303 -73.42422919 110.52097179 -64.25 101.625 C-63.36054688 100.76261719 -62.47109375 99.90023437 -61.5546875 99.01171875 C-55.38871727 92.62628178 -51.80432233 85.68868418 -48.25 77.625 C-47.86585938 76.8103125 -47.48171875 75.995625 -47.0859375 75.15625 C-44.72194758 67.99800015 -45.16119624 58.88341406 -48.3125 52.0625 C-52.40748728 45.1650773 -57.86931446 41.02984593 -65.39453125 38.3203125 C-78.74311481 35.06990501 -92.8977759 38.91768408 -104.5234375 45.7421875 C-117.12625475 54.44499253 -125.55786979 64.82277176 -129.23046875 79.875 C-130.45343985 83.17374196 -131.18394086 83.94542172 -134.25 85.625 C-136.9126346 85.7691631 -139.28711471 85.74570659 -141.92578125 85.55078125 C-143.05722061 85.48602852 -143.05722061 85.48602852 -144.21151733 85.41996765 C-146.66313891 85.27524396 -149.11248664 85.10713902 -151.5625 84.9375 C-153.24123065 84.83169927 -154.92002374 84.72688467 -156.59887695 84.62304688 C-160.7304122 84.36213939 -164.86006734 84.07957037 -168.98937988 83.78570557 C-171.06268444 83.6383161 -173.13630907 83.49544708 -175.20996094 83.35302734 C-178.45390073 83.12567353 -181.69578561 82.88195703 -184.9375 82.625 C-185.87311768 82.55450439 -186.80873535 82.48400879 -187.77270508 82.41137695 C-194.0109874 81.8640126 -194.0109874 81.8640126 -196.25 79.625 C-198.88283127 61.3113354 -186.01133401 40.01642174 -175.71484375 25.77734375 C-157.43654473 1.98218693 -132.52051168 -13.08477543 -103.25 -19.375 C-101.99316406 -19.66503906 -101.99316406 -19.66503906 -100.7109375 -19.9609375 C-68.15695219 -27.09181047 -25.7592172 -22.57372621 0 0 Z " fill="#45C3A4" transform="translate(366.25,254.375)"/>
<path d="M0 0 C14.06508057 13.57873615 21.54348 31.98363322 22.16479492 51.36987305 C22.52916456 76.97653101 13.11343218 99.09406074 -4.17578125 117.7265625 C-19.47685588 133.28360306 -39.30596526 139.87724088 -60.17578125 143.7265625 C-61.57183594 144.00693359 -61.57183594 144.00693359 -62.99609375 144.29296875 C-82.16746752 146.90724699 -102.81877081 144.44341163 -120.17578125 135.7265625 C-121.08199219 135.29730469 -121.98820312 134.86804688 -122.921875 134.42578125 C-139.54040842 126.05758357 -151.86434693 112.22099451 -158.17578125 94.7265625 C-158.56636719 93.71464844 -158.95695312 92.70273437 -159.359375 91.66015625 C-164.83780492 74.99738844 -164.53434446 54.08012212 -158.17578125 37.7265625 C-157.80195312 36.76363281 -157.428125 35.80070312 -157.04296875 34.80859375 C-155.86447318 32.04186077 -154.56705802 29.39220204 -153.17578125 26.7265625 C-152.68464844 25.76234375 -152.19351562 24.798125 -151.6875 23.8046875 C-147.24950689 15.62776464 -141.69339491 9.26277135 -135.17578125 2.7265625 C-134.46808594 1.99566406 -133.76039062 1.26476562 -133.03125 0.51171875 C-124.08069235 -8.13078911 -111.89111055 -14.30076528 -100.17578125 -18.2734375 C-99.45132812 -18.54671875 -98.726875 -18.82 -97.98046875 -19.1015625 C-65.2092267 -30.43263602 -25.88395104 -22.39892234 0 0 Z " fill="#44C4A4" transform="translate(1206.17578125,396.2734375)"/>
<path d="M0 0 C2.37854822 1.89435638 4.63271256 3.85849824 6.87890625 5.90625 C8.11060547 6.82857422 8.11060547 6.82857422 9.3671875 7.76953125 C20.4215374 17.17346499 28.05479496 33.79667126 29.87890625 47.90625 C30.16837032 53.24240411 30.06391794 58.56832005 29.87890625 63.90625 C29.18555176 64.0921167 28.49219727 64.2779834 27.77783203 64.46948242 C24.51963549 65.34341595 21.26173896 66.21846115 18.00390625 67.09375 C16.81095947 67.41400146 15.6180127 67.73425293 14.38891602 68.06420898 C8.54324817 69.63699732 2.70440869 71.22700616 -3.1184082 72.88232422 C-12.05421496 75.41971727 -21.05843492 77.60487006 -30.09619141 79.74853516 C-37.38640457 81.48005822 -44.63265896 83.30772061 -51.85986328 85.28759766 C-55.89817586 86.3924437 -59.93922659 87.48714958 -63.98071289 88.58032227 C-66.27083109 89.19981045 -68.56041106 89.82129293 -70.84936523 90.44506836 C-76.91413764 92.08710514 -82.97514305 93.5994268 -89.12109375 94.90625 C-82.99657108 105.00161704 -76.61344757 110.88143285 -65.2578125 114.5 C-48.40184106 117.70479164 -32.49779064 112.30157792 -18.12109375 103.90625 C-15.70577445 102.05924112 -13.6273916 100.27193559 -11.59375 98.0234375 C-10.12109375 96.90625 -10.12109375 96.90625 -8.25463867 97.140625 C-5.73490539 98.04483413 -4.43253013 99.18186442 -2.51171875 101.0390625 C-1.83882812 101.68101562 -1.1659375 102.32296875 -0.47265625 102.984375 C0.22085938 103.65984375 0.914375 104.3353125 1.62890625 105.03125 C2.99739748 106.34770734 4.36718802 107.66281537 5.73828125 108.9765625 C6.41310547 109.62915039 7.08792969 110.28173828 7.78320312 110.95410156 C10.54831208 113.52980184 13.4639169 115.90704357 16.41894531 118.26123047 C17.87890625 119.90625 17.87890625 119.90625 17.87890625 123.90625 C8.25814787 139.70519507 -14.08739881 148.7211905 -31.1953125 153.08203125 C-59.73579798 159.31487914 -86.35457344 157.43899297 -111.25 141.9609375 C-126.72478843 131.32874628 -137.4021891 115.05445849 -141.8671875 96.8671875 C-146.41291681 72.10080021 -141.22143248 48.69471057 -127.42578125 27.75488281 C-123.83855043 22.67207746 -119.53902021 18.2646535 -115.12109375 13.90625 C-114.46625 13.25269531 -113.81140625 12.59914063 -113.13671875 11.92578125 C-84.33653056 -14.96670217 -33.57461162 -22.52314372 0 0 Z " fill="#1B1E22" transform="translate(746.12109375,384.09375)"/>
<path d="M0 0 C1.44345981 -0.0114292 2.88688047 -0.03173455 4.33007812 -0.06152344 C25.11490644 -0.48862529 46.39210364 5.23317591 62.25170898 19.29516602 C63.26945862 20.61500065 64.27234903 21.94659943 65.25170898 23.29516602 C64.82462646 23.74730469 64.39754395 24.19944336 63.95751953 24.6652832 C56.0423367 33.04893948 48.14610442 41.44497318 40.38842773 49.97485352 C38.71306673 51.79416693 37.01988567 53.56704512 35.25170898 55.29516602 C31.98376192 53.76759076 29.10974133 51.87969231 26.12670898 49.85766602 C15.24360496 42.97507058 4.05393013 41.79233929 -8.57641602 43.72875977 C-21.54564793 47.09657644 -31.63176083 55.21850293 -38.49829102 66.54516602 C-44.06068716 77.33055787 -46.49924396 88.14587156 -43.49047852 99.97485352 C-40.28814002 109.98637493 -35.09503594 116.45346916 -26.09594727 121.90063477 C-14.31041563 127.67215026 -1.32397401 126.35185151 10.83374023 122.47094727 C17.52262712 119.88207861 23.32263611 116.3079986 29.25170898 112.29516602 C33.94291705 118.61060085 38.60715522 124.94534725 43.25170898 131.29516602 C43.76733398 131.99722168 44.28295898 132.69927734 44.81420898 133.42260742 C46.11766133 135.20535006 47.40634799 136.99757522 48.68920898 138.79516602 C49.77008789 140.29563477 49.77008789 140.29563477 50.87280273 141.82641602 C51.3278418 142.64110352 51.78288086 143.45579102 52.25170898 144.29516602 C50.23602746 150.34221058 43.15576554 153.36858298 37.70874023 156.16625977 C11.56106745 169.01920226 -18.80883561 172.54102626 -46.74829102 163.29516602 C-65.88186007 156.75355389 -80.48198659 143.9784586 -89.44360352 125.86938477 C-94.53569786 114.61511828 -96.12617655 104.27419916 -96.06079102 91.98266602 C-96.05587646 90.88543213 -96.05096191 89.78819824 -96.04589844 88.65771484 C-95.68119816 63.37744004 -84.30928343 42.47804873 -66.73632812 24.77172852 C-48.66694279 7.46001042 -24.53235056 0.13438627 0 0 Z " fill="#1A1E22" transform="translate(888.748291015625,371.704833984375)"/>
<path d="M0 0 C15.84 0 31.68 0 48 0 C47.3611645 10.86020353 46.64685621 21.62558787 45.5625 32.4375 C45.42760428 33.80223324 45.29284047 35.16697953 45.15820312 36.53173828 C43.98902086 48.32596335 42.72674996 60.10367868 41.28125 71.8671875 C40.08385942 81.63163163 38.91047457 91.38574492 38.0625 101.1875 C37.20149131 111.13816821 36.17793558 121.06819257 35.125 131 C34.99557007 132.22237869 34.99557007 132.22237869 34.86352539 133.4694519 C34.24445386 139.31319219 33.62249972 145.15662407 33 151 C32.3521342 157.08311891 31.70606136 163.16642414 31.0625 169.25 C30.98278961 170.0023291 30.90307922 170.7546582 30.82095337 171.52978516 C29.73633729 181.78206399 28.69105797 192.03788229 27.671875 202.296875 C27.55891586 203.4330426 27.44595673 204.56921021 27.32957458 205.73980713 C26.77058472 211.36821546 26.21450331 216.99689315 25.66235352 222.62597656 C25.45853564 224.68815495 25.25468003 226.75032961 25.05078125 228.8125 C24.95927795 229.75454285 24.86777466 230.69658569 24.77349854 231.66717529 C24.6425882 232.98627899 24.6425882 232.98627899 24.5090332 234.33203125 C24.43449417 235.09233643 24.35995514 235.8526416 24.28315735 236.63598633 C23.94770593 239.4365908 23.46370753 242.2177548 23 245 C6.83 245 -9.34 245 -26 245 C-26 239.08039961 -25.87134417 233.5335861 -25.20556641 227.70483398 C-25.12099686 226.92942764 -25.03642731 226.1540213 -24.94929504 225.3551178 C-24.67140707 222.81823463 -24.38658732 220.28218414 -24.1015625 217.74609375 C-23.90417733 215.95887019 -23.70719362 214.17160226 -23.5105896 212.3842926 C-23.09822435 208.64445175 -22.68272471 204.90497816 -22.26464844 201.16577148 C-21.73385326 196.41836777 -21.2082062 191.67041403 -20.68462563 186.92220974 C-20.17945541 182.34248428 -19.67194183 177.76301946 -19.1640625 173.18359375 C-19.0697356 172.33188536 -18.97540871 171.48017696 -18.87822342 170.60265923 C-17.80334168 160.91477639 -16.6780947 151.2371464 -15.43084717 141.56982422 C-14.66792946 135.2485987 -14.16097553 128.90656502 -13.625 122.5625 C-12.57665226 110.4704292 -11.25996713 98.43442298 -9.74230957 86.39291382 C-8.26269777 74.62015938 -7.06842404 62.83778577 -6.0390625 51.01733398 C-5.37331527 43.48458244 -4.49638685 36.01261945 -3.46386719 28.52148438 C-2.81940275 23.62898171 -2.36222006 18.72817308 -1.9375 13.8125 C-1.78285813 12.02708929 -1.62541723 10.24191826 -1.46484375 8.45703125 C-1.399021 7.69366455 -1.33319824 6.93029785 -1.26538086 6.14379883 C-1 4 -1 4 0 0 Z " fill="#45C4A5" transform="translate(990,291)"/>
<path d="M0 0 C1.010625 0.556875 2.02125 1.11375 3.0625 1.6875 C10.70607934 7.70478586 16.03455073 14.3324464 18 24 C19.51521385 38.31561414 16.28155589 51.25326677 8 63 C6.9171875 64.5778125 6.9171875 64.5778125 5.8125 66.1875 C-3.58194448 75.58194448 -15.395312 80.32617574 -28.5625 80.5 C-38.79392121 80.36445457 -47.04006163 77.67502044 -54.9921875 71.0625 C-58.45238465 67.50805624 -60.82569701 63.43415233 -63 59 C-63.37511719 58.27296875 -63.75023437 57.5459375 -64.13671875 56.796875 C-67.04462179 47.37579547 -66.25263856 34.22723596 -62.25 25.3046875 C-54.90482687 11.76202454 -45.30191502 2.71028842 -31 -3 C-21.1598301 -5.72004696 -8.72651454 -5.51654113 0 0 Z " fill="#F5F4F4" transform="translate(516,421)"/>
<path d="M0 0 C8.83748154 5.58528834 15.792717 13.2263846 18.44140625 23.54296875 C18.74302786 26.79736437 18.77462082 30.02615948 18.75390625 33.29296875 C18.7497168 34.18532227 18.74552734 35.07767578 18.74121094 35.99707031 C18.63328118 42.27766358 18.02178658 47.75394158 15.44140625 53.54296875 C15.18617187 54.208125 14.9309375 54.87328125 14.66796875 55.55859375 C10.04610201 66.32881533 0.42797346 74.67013226 -10.21484375 79.1796875 C-14.97730944 80.90277674 -19.47483199 80.98680554 -24.49609375 80.91796875 C-25.33849609 80.92957031 -26.18089844 80.94117188 -27.04882812 80.953125 C-39.14235147 80.89726577 -46.82613968 76.14513978 -55.30859375 67.85546875 C-63.44817553 56.90815667 -63.9199828 44.6685053 -62.55859375 31.54296875 C-60.2532273 20.06765306 -52.7114622 9.40871312 -43.06640625 2.84765625 C-40.59450063 1.32930473 -38.1331011 -0.12010862 -35.55859375 -1.45703125 C-34.84058594 -1.8334375 -34.12257813 -2.20984375 -33.3828125 -2.59765625 C-23.20019495 -5.69610142 -9.41109474 -4.77917613 0 0 Z " fill="#F5F5F5" transform="translate(1158.55859375,418.45703125)"/>
<path d="M0 0 C1.69558738 0.00023397 1.69558738 0.00023397 3.42542904 0.00047267 C4.72635232 -0.00177462 6.0272756 -0.00402192 7.36762079 -0.00633731 C8.83318656 -0.00377099 10.29875217 -0.00111406 11.76431763 0.00162334 C13.31060113 0.00088461 14.85688447 -0.000293 16.40316733 -0.00187316 C20.69182658 -0.00496301 24.98046238 -0.00174993 29.26911989 0.00240497 C33.91982954 0.00582155 38.57053666 0.00347176 43.22124678 0.00182748 C51.38525414 -0.00025244 59.54925424 0.00140802 67.71326077 0.00546569 C79.8529796 0.01148268 91.99269382 0.01180318 104.13241388 0.0109237 C124.55000004 0.00960749 144.96758297 0.01295994 165.38516819 0.01894111 C185.61134811 0.02485107 205.83752669 0.02870562 226.06370747 0.02979392 C227.31966891 0.02986266 228.57563035 0.0299314 229.86965123 0.03000222 C236.24762297 0.03034054 242.6255947 0.03064193 249.00356643 0.0309291 C294.21982276 0.03303146 339.43607718 0.03977349 384.65233242 0.04923171 C395.61748134 0.05152333 406.58263026 0.05379867 417.5477792 0.05600661 C418.22781892 0.05614356 418.90785865 0.05628051 419.60850564 0.05642161 C451.20913155 0.06276317 482.80975761 0.06649047 514.41038399 0.06954141 C516.46137825 0.06973947 518.51237251 0.06993867 520.56336676 0.07013809 C534.15516747 0.07145784 547.74696818 0.0727325 561.3387689 0.07397695 C589.02869354 0.07651261 616.71861815 0.07933465 644.40854275 0.08232803 C646.31839626 0.08253396 646.31839626 0.08253396 648.26683267 0.08274406 C733.34186652 0.09195015 818.4168994 0.10779598 903.49193203 0.12467116 C903.8741197 1.78081774 904.20588305 3.44924141 904.49193203 5.12467116 C903.49193203 6.12467116 903.49193203 6.12467116 900.98386406 6.24934233 C899.85347248 6.24918635 898.72308089 6.24903037 897.55843502 6.24886966 C896.25751174 6.25111695 894.95658846 6.25336425 893.61624327 6.25567964 C892.1506775 6.25311332 890.68511189 6.25045639 889.21954643 6.24771899 C887.67326294 6.24845772 886.1269796 6.24963533 884.58069673 6.25121549 C880.29203749 6.25430534 876.00340168 6.25109226 871.71474417 6.24693736 C867.06403452 6.24352078 862.4133274 6.24587057 857.76261729 6.24751485 C849.59860992 6.24959477 841.43460982 6.24793431 833.2706033 6.24387664 C821.13088446 6.23785965 808.99117024 6.23753915 796.85145019 6.23841863 C776.43386402 6.23973483 756.01628109 6.23638239 735.59869587 6.23040122 C715.37251595 6.22449126 695.14633737 6.22063671 674.92015659 6.21954841 C673.66419515 6.21947967 672.40823371 6.21941093 671.11421283 6.21934011 C664.7362411 6.21900179 658.35826936 6.2187004 651.98029763 6.21841323 C606.7640413 6.21631087 561.54778688 6.20956884 516.33153164 6.20011062 C505.36638272 6.197819 494.4012338 6.19554366 483.43608486 6.19333572 C482.75604514 6.19319877 482.07600541 6.19306182 481.37535842 6.19292072 C449.77473251 6.18657916 418.17410645 6.18285186 386.57348007 6.17980092 C384.52248581 6.17960286 382.47149155 6.17940366 380.4204973 6.17920424 C366.82869659 6.17788448 353.23689588 6.17660983 339.64509516 6.17536538 C311.95517052 6.17282972 284.26524591 6.17000768 256.57532131 6.1670143 C255.30208564 6.16687701 254.02884996 6.16673972 252.71703139 6.16659827 C167.64199754 6.15739218 82.56696466 6.14154635 -2.50806797 6.12467116 C-2.89025564 4.46852459 -3.22201899 2.80010092 -3.50806797 1.12467116 C-2.50806797 0.12467116 -2.50806797 0.12467116 0 0 Z " fill="#323539" transform="translate(297.5080679692328,595.8753288350999)"/>
<path d="M0 0 C7.21978403 5.17417855 12.29327702 11.83664818 14.53125 20.4921875 C14.8064286 23.6224786 14.81087808 26.72661127 14.78125 29.8671875 C14.79285156 31.08535156 14.79285156 31.08535156 14.8046875 32.328125 C14.76442213 44.89091953 10.55013465 54.03806885 2.03515625 63.15625 C-7.40439413 71.96257001 -17.84072958 74.35265136 -30.46875 74.4921875 C-40.79604705 73.71871449 -48.705541 69.03794093 -55.74609375 61.60546875 C-58.29373603 58.4801298 -60.02759427 55.24489996 -61.46875 51.4921875 C-61.82453125 50.59113281 -62.1803125 49.69007813 -62.546875 48.76171875 C-65.38376834 38.70036397 -64.43910048 26.6746994 -59.46875 17.4921875 C-52.3260863 5.41219867 -42.82700664 -0.98935046 -29.58984375 -5.08984375 C-19.07969275 -7.16090481 -9.08400033 -5.54813944 0 0 Z " fill="#F5F5F5" transform="translate(1359.46875,419.5078125)"/>
<path d="M0 0 C8.83228374 6.17583059 14.99052643 14.10304579 17.7265625 24.61328125 C19.22296186 36.77912973 16.9708041 46.84527574 9.8515625 56.98828125 C4.45125465 63.61155958 -1.27118178 67.63443817 -9.2734375 70.61328125 C-10.20671875 70.97164062 -11.14 71.33 -12.1015625 71.69921875 C-21.83215223 74.50335421 -32.34921406 73.24065637 -41.2734375 68.61328125 C-51.99844378 62.19725979 -58.87009066 52.51775402 -62.2734375 40.61328125 C-63.14409416 31.50175802 -62.64598584 23.71112571 -58.2734375 15.61328125 C-57.9228125 14.91847656 -57.5721875 14.22367188 -57.2109375 13.5078125 C-51.5583152 3.36057038 -42.24109211 -2.50889998 -31.38671875 -5.9921875 C-19.86329716 -8.1435102 -9.93360746 -6.05915919 0 0 Z " fill="#45C2A4" transform="translate(275.2734375,499.38671875)"/>
<path d="M0 0 C4.29 0 8.58 0 13 0 C19.78823031 21.10807061 19.78823031 21.10807061 22.875 31.5 C23.07762451 32.17409912 23.28024902 32.84819824 23.48901367 33.54272461 C24.60397703 37.33898957 25.43203976 41.08469964 26 45 C26.66 45 27.32 45 28 45 C28.24878906 43.75992188 28.49757813 42.51984375 28.75390625 41.2421875 C30.05516043 35.38940485 31.98661638 29.78793189 33.9375 24.125 C36.32956643 17.15738535 38.5627537 10.21737526 40.38891602 3.07763672 C41 1 41 1 42 0 C43.68608966 -0.07205511 45.37500659 -0.08386068 47.0625 -0.0625 C47.98160156 -0.05347656 48.90070313 -0.04445313 49.84765625 -0.03515625 C50.55792969 -0.02355469 51.26820312 -0.01195312 52 0 C55.12618037 9.28475569 58.20825569 18.57139736 61.05859375 27.9453125 C62.99408452 36.55189666 62.99408452 36.55189666 67 44 C68.04241379 40.58356086 69.08378589 37.16680494 70.125 33.75 C70.43904785 32.72052246 70.7530957 31.69104492 71.07666016 30.63037109 C72.65668171 25.44341558 74.22628834 20.25387561 75.765625 15.0546875 C76.03745605 14.13848633 76.30928711 13.22228516 76.58935547 12.27832031 C77.10671293 10.53107329 77.62143057 8.78304211 78.13330078 7.03417969 C79.8893782 1.1106218 79.8893782 1.1106218 81 0 C84.99984478 -0.14346646 88.99829982 -0.04212316 93 0 C90.04809272 10.77462382 86.62986272 21.35324931 83.0625 31.9375 C82.54463405 33.48102326 82.02705496 35.02464278 81.50976562 36.56835938 C80.49899259 39.58365444 79.4866971 42.59843114 78.47314453 45.61279297 C76.30280053 52.0709818 74.15127536 58.53543842 72 65 C68.37 65 64.74 65 61 65 C60.49210937 63.33195313 59.98421875 61.66390625 59.4609375 59.9453125 C55.47670897 46.90337146 51.40242083 33.90709742 47 21 C45.28819708 23.56770439 44.47830793 25.24068552 43.57958984 28.10424805 C43.31947113 28.92487228 43.05935242 29.74549652 42.79135132 30.59098816 C42.51731476 31.47232925 42.2432782 32.35367035 41.9609375 33.26171875 C41.67521881 34.16751175 41.38950012 35.07330475 41.09512329 36.00654602 C40.18393282 38.89880965 39.27939353 41.79310466 38.375 44.6875 C37.75824953 46.64922599 37.14106726 48.61081629 36.5234375 50.57226562 C35.01061078 55.37995039 33.50374571 60.18946752 32 65 C28.37 65 24.74 65 21 65 C19.64400756 61.12806045 18.29340866 57.25428141 16.94726562 53.37890625 C16.49097462 52.06754892 16.03334494 50.75665644 15.57421875 49.44628906 C12.7262677 41.31463936 10.11319377 33.18332046 7.83691406 24.86987305 C6.83653024 21.43944368 5.42827598 18.27313244 4 15 C0 2.95636364 0 2.95636364 0 0 Z " fill="#1D2024" transform="translate(1172,646)"/>
<path d="M0 0 C2.33644843 1.46874566 4.51400782 2.96322657 6.46875 4.91796875 C6.79875 3.26796875 7.12875 1.61796875 7.46875 -0.08203125 C11.09875 -0.08203125 14.72875 -0.08203125 18.46875 -0.08203125 C18.54328656 6.16183912 18.59753447 12.40544655 18.63354492 18.6496582 C18.64856784 20.77079789 18.66899211 22.89190685 18.69506836 25.01293945 C18.73173838 28.07380794 18.74854175 31.13426329 18.76171875 34.1953125 C18.77720261 35.133181 18.79268646 36.0710495 18.80863953 37.03733826 C18.81085251 45.82953698 16.81892744 53.38518648 11.16796875 60.25390625 C5.6768578 65.63140801 -1.36211685 65.33237723 -8.58837891 65.27661133 C-15.68744688 65.05242146 -22.15107338 63.83030393 -27.53125 58.91796875 C-26.08871343 55.55205009 -24.19860273 53.40749796 -21.53125 50.91796875 C-20.644375 51.57796875 -19.7575 52.23796875 -18.84375 52.91796875 C-13.44746619 56.0015595 -7.54756389 55.68354083 -1.53125 54.91796875 C2.01005232 53.68706999 3.9094255 51.90344525 5.78125 48.60546875 C6.60275841 45.3941177 7.08165784 42.20825208 7.46875 38.91796875 C6.540625 39.55734375 5.6125 40.19671875 4.65625 40.85546875 C-1.43640852 44.7977772 -7.46663864 44.3970731 -14.53125 43.91796875 C-20.61757574 41.85296538 -25.10405174 37.30356602 -28.53125 31.91796875 C-31.25218438 25.9032717 -31.6808785 19.55400309 -29.69140625 13.26171875 C-26.94703696 7.12615912 -23.37900593 3.23332828 -17.53125 -0.08203125 C-11.99229101 -1.92835091 -5.43534871 -2.32344381 0 0 Z " fill="#1E2226" transform="translate(868.53125,667.08203125)"/>
<path d="M0 0 C5.33467115 3.24534666 9.97346639 7.05336772 11.96484375 13.1953125 C13.00244111 20.78671357 12.36229985 27.7833793 7.96484375 34.1953125 C3.01634687 39.69130266 -1.71430984 42.78708529 -9.21875 43.49609375 C-18.91409825 43.53101097 -25.11476616 41.80745756 -32.30078125 35.13671875 C-37.00995232 29.8654169 -37.60726772 23.75048309 -37.37890625 16.87109375 C-36.51117274 10.11657721 -33.18108293 5.56053949 -27.87109375 1.44921875 C-19.3307616 -4.3836464 -9.14932267 -4.73183777 0 0 Z " fill="#1C2024" transform="translate(804.03515625,668.8046875)"/>
<path d="M0 0 C4.05694381 2.84697811 7.57667315 6.0872517 10.3125 10.25 C10.3125 10.91 10.3125 11.57 10.3125 12.25 C9.32894531 12.46914063 8.34539062 12.68828125 7.33203125 12.9140625 C-0.66801645 14.72984991 -8.56752367 16.74577715 -16.4375 19.0625 C-26.48789502 22.01249736 -36.63699359 24.48113029 -46.82714844 26.88989258 C-52.48705178 28.22825774 -58.11732376 29.57401777 -63.6875 31.25 C-63.04223186 19.6351735 -57.12589777 11.00528938 -48.6875 3.25 C-45.49485539 0.9024672 -42.23042254 -0.9843659 -38.6875 -2.75 C-37.7903125 -3.25853516 -37.7903125 -3.25853516 -36.875 -3.77734375 C-25.53439896 -9.27044738 -10.21917656 -6.31730915 0 0 Z " fill="#F3F3F3" transform="translate(717.6875,415.75)"/>
<path d="M0 0 C5.55225261 3.55344167 9.19465552 8.13931104 12.125 14 C12.125 17.63 12.125 21.26 12.125 25 C0.575 25 -10.975 25 -22.875 25 C-19.98229428 32.02373149 -19.98229428 32.02373149 -14.875 36 C-10.62180431 36.71314913 -5.90857682 36.99807451 -1.96484375 35.0625 C-0.59355635 34.05244687 0.76648605 33.02716908 2.125 32 C4.25 31.9375 4.25 31.9375 6.125 33 C8.375 35.5625 8.375 35.5625 10.125 38 C3.12646824 44.48644407 -3.28230526 45.43683391 -12.72265625 45.2421875 C-19.90870112 44.69009979 -24.53005945 42.26550006 -29.3984375 36.94140625 C-34.14018573 30.70688544 -34.8475388 23.64616711 -33.875 16 C-32.02930398 9.3601376 -27.45083921 4.8418259 -21.875 1 C-15.50771096 -2.17836484 -6.72937574 -2.37057555 0 0 Z " fill="#1E2226" transform="translate(1105.875,667)"/>
<path d="M0 0 C3.63 0 7.26 0 11 0 C11.33 9.57 11.66 19.14 12 29 C14.97 26.525 14.97 26.525 18 24 C21.93248322 22.03375839 26.70382306 22.67139723 31 23 C36.28923987 24.76307996 38.80008936 27.61155112 42 32 C43.18975795 35.56927385 43.12478155 38.79946972 43.09765625 42.51171875 C43.0962413 43.23994339 43.09482635 43.96816803 43.09336853 44.71846008 C43.08777659 47.04151539 43.07522562 49.36447388 43.0625 51.6875 C43.05748396 53.26367048 43.05292123 54.83984248 43.04882812 56.41601562 C43.0378098 60.27738098 43.02055074 64.13867408 43 68 C39.37 68 35.74 68 32 68 C31.98541748 67.1121582 31.97083496 66.22431641 31.95581055 65.30957031 C31.89465466 62.00672038 31.82048622 58.70469085 31.73754883 55.40234375 C31.70435206 53.97472086 31.67630369 52.54696837 31.65356445 51.11914062 C31.61991987 49.06324185 31.56760438 47.00852488 31.51171875 44.953125 C31.47244263 43.09929199 31.47244263 43.09929199 31.43237305 41.20800781 C30.97551444 37.81832849 30.3783233 36.405606 28 34 C25.00561037 32.85357654 22.18095608 32.67485969 19 33 C15.93619046 34.49701667 13.53916422 36.47867587 12.36352539 39.79589844 C11.90663067 42.56611035 11.7798935 45.27167519 11.68359375 48.078125 C11.64169922 49.23828125 11.59980469 50.3984375 11.55664062 51.59375 C11.49766602 53.40359375 11.49766602 53.40359375 11.4375 55.25 C11.39431641 56.47203125 11.35113281 57.6940625 11.30664062 58.953125 C11.20062645 61.9686392 11.09856064 64.98423448 11 68 C7.37 68 3.74 68 0 68 C0 45.56 0 23.12 0 0 Z " fill="#1D2024" transform="translate(1005,643)"/>
<path d="M0 0 C3.63 0 7.26 0 11 0 C11.33 9.24 11.66 18.48 12 28 C15.465 25.525 15.465 25.525 19 23 C24.78615956 21.7307779 30.40361039 22.18925235 35.5625 25.1875 C40.27811232 28.66061696 42.09755507 32.28518358 43 38 C43.08028946 40.34911415 43.10765823 42.70031669 43.09765625 45.05078125 C43.0962413 45.70958786 43.09482635 46.36839447 43.09336853 47.04716492 C43.087805 49.13565762 43.07525947 51.22404011 43.0625 53.3125 C43.05748028 54.73502449 43.0529182 56.15755066 43.04882812 57.58007812 C43.03784757 61.05342077 43.02060835 64.52669961 43 68 C39.37 68 35.74 68 32 68 C31.9906543 67.1121582 31.98130859 66.22431641 31.97167969 65.30957031 C31.92759319 62.00654081 31.86595254 58.70479993 31.79248047 55.40234375 C31.76430389 53.97473063 31.74307273 52.54696247 31.72900391 51.11914062 C31.70752608 49.06299668 31.66086026 47.00870998 31.609375 44.953125 C31.58842773 43.71723633 31.56748047 42.48134766 31.54589844 41.20800781 C30.90825937 37.4608802 29.95412319 36.30440962 27 34 C23.86128812 32.43064406 21.46144178 32.64798897 18 33 C15.36983839 35.1727422 13.52663106 36.94673788 12 40 C11.84558791 42.10374996 11.75007361 44.21195119 11.68359375 46.3203125 C11.64169922 47.57714844 11.59980469 48.83398438 11.55664062 50.12890625 C11.51732422 51.44761719 11.47800781 52.76632812 11.4375 54.125 C11.39430488 55.46485751 11.35069027 56.80470156 11.30664062 58.14453125 C11.20029019 61.42957815 11.09826192 64.71470281 11 68 C7.37 68 3.74 68 0 68 C0 45.56 0 23.12 0 0 Z " fill="#1E2226" transform="translate(1288,643)"/>
<path d="M0 0 C3.96 0 7.92 0 12 0 C13.57328857 3.78753248 15.13966727 7.57784014 16.69970703 11.37084961 C17.23134392 12.66069346 17.76486022 13.94976435 18.30029297 15.23803711 C19.06972387 17.09023857 19.83183735 18.94547446 20.59375 20.80078125 C21.05458984 21.91622314 21.51542969 23.03166504 21.99023438 24.1809082 C23 27 23 27 23 30 C23.66 30 24.32 30 25 30 C25.39832031 28.74316406 25.79664063 27.48632812 26.20703125 26.19140625 C28.05879955 20.63610136 30.34708318 15.30142181 32.6875 9.9375 C33.10322266 8.97650391 33.51894531 8.01550781 33.94726562 7.02539062 C34.96150578 4.68214613 35.98028061 2.34086527 37 0 C40.63 0 44.26 0 48 0 C47.16924175 4.15379126 46.24471953 6.99914408 44.515625 10.77734375 C43.99830811 11.91727783 43.48099121 13.05721191 42.94799805 14.23168945 C42.67128265 14.83550446 42.39456726 15.43931946 42.10946655 16.06143188 C40.63588145 19.2780155 39.17968336 22.50245275 37.72265625 25.7265625 C37.41959061 26.39631607 37.11652496 27.06606964 36.80427551 27.75611877 C33.35066549 35.40621478 30.01416591 43.10654836 26.6875 50.8125 C26.39951538 51.47909637 26.11153076 52.14569275 25.81481934 52.83248901 C24.20733694 56.55389953 22.60239759 60.27639738 21 64 C17.04 64 13.08 64 9 64 C10.72314533 58.41869025 13.21438716 53.41432035 15.85546875 48.21875 C18.00527751 42.17287143 15.5431368 37.43656687 13 31.875 C12.69892334 31.19993408 12.39784668 30.52486816 12.08764648 29.8293457 C10.26161057 25.74601759 8.39668053 21.68051978 6.53515625 17.61328125 C6.12458984 16.71174316 5.71402344 15.81020508 5.29101562 14.88134766 C4.48152201 13.10631733 3.66654282 11.33377692 2.84570312 9.56396484 C2.47509766 8.75266113 2.10449219 7.94135742 1.72265625 7.10546875 C1.39015869 6.38512451 1.05766113 5.66478027 0.71508789 4.92260742 C0 3 0 3 0 0 Z " fill="#1D2125" transform="translate(1353,667)"/>
<path d="M0 0 C3.96 0 7.92 0 12 0 C12 18.48 12 36.96 12 56 C21.9 56 31.8 56 42 56 C42 58.97 42 61.94 42 65 C28.14 65 14.28 65 0 65 C0 43.55 0 22.1 0 0 Z " fill="#1A1E22" transform="translate(704,646)"/>
<path d="M0 0 C3.96 0 7.92 0 12 0 C12 4.62 12 9.24 12 14 C16.29 14 20.58 14 25 14 C25 16.97 25 19.94 25 23 C20.71 23 16.42 23 12 23 C12.33 31.91 12.66 40.82 13 50 C16.63 50 20.26 50 24 50 C24 52.64 24 55.28 24 58 C21.19892988 59.40053506 18.81108319 59.2075504 15.6875 59.25 C14.55699219 59.27578125 13.42648437 59.3015625 12.26171875 59.328125 C8.57534195 58.95727991 6.85831213 58.3417497 4 56 C1.40754387 51.67196271 0.63533139 48.52680264 0.70703125 43.5078125 C0.71669922 42.30898438 0.72636719 41.11015625 0.73632812 39.875 C0.76146484 38.6375 0.78660156 37.4 0.8125 36.125 C0.83280273 34.23394531 0.83280273 34.23394531 0.85351562 32.3046875 C0.88876565 29.20268546 0.93804496 26.10156466 1 23 C-2.3 23 -5.6 23 -9 23 C-9 20.03 -9 17.06 -9 14 C-6.03 14 -3.06 14 0 14 C0 9.38 0 4.76 0 0 Z " fill="#202328" transform="translate(955,653)"/>
<path d="M0 0 C4.28635138 2.26924485 7.60201503 4.7574112 10 9 C10.82568632 14.02994625 10.56729109 17.84440704 8.3125 22.4375 C4.48186572 26.68225691 1.76374334 28.17519153 -3.9375 28.5 C-7.50353167 28.39370994 -9.69159858 27.98568074 -12.5 25.75 C-16.74942242 21.07563534 -17.45892318 17.68648998 -17.3125 11.47265625 C-16.84228626 7.75209001 -15.52775595 5.72731563 -13 3 C-8.634442 0.089628 -5.20499921 -0.6506249 0 0 Z " fill="#F0EFF0" transform="translate(795,675)"/>
<path d="M0 0 C4.38253554 2.19126777 7.16669816 4.41674539 9 9 C9.5608442 13.276437 9.49981102 16.81623706 7.8125 20.8125 C2.95370729 26.67656016 2.95370729 26.67656016 -1.3359375 27.38671875 C-7.0314202 27.63472025 -10.63093234 26.94281716 -15 23 C-18.16205748 19.31093294 -18.52383784 15.92109268 -18.3515625 11.21484375 C-17.63443905 6.69696599 -15.18268822 4.01373276 -11.8125 1.125 C-7.79880044 -0.48047982 -4.26304489 -0.67667379 0 0 Z " fill="#EFEEEF" transform="translate(867,675)"/>
<path d="M0 0 C3.66442598 1.62863377 5.99175177 3.51198992 8 7 C8 8.32 8 9.64 8 11 C0.08 11 -7.84 11 -16 11 C-13.02549719 2.07649158 -9.16268689 -1.1635158 0 0 Z " fill="#F3F3F3" transform="translate(1099,674)"/>
<path d="M0 0 C0 0.66 0 1.32 0 2 C-1.6796875 3.62109375 -1.6796875 3.62109375 -3.875 5.4375 C-6.46193722 7.58400884 -8.11184374 9.16776562 -10 12 C-10.66 12 -11.32 12 -12 12 C-10.82763323 7.16398706 -5.40844892 0 0 0 Z " fill="#282D31" transform="translate(1086,668)"/>
<path d="M0 0 C0 3.54404336 -0.60989485 4.10267905 -2.875 6.6875 C-3.40867187 7.31011719 -3.94234375 7.93273437 -4.4921875 8.57421875 C-6 10 -6 10 -8 10 C-6.5682479 4.98886765 -4.01554307 3.05530451 0 0 Z " fill="#292C31" transform="translate(777,670)"/>
</svg>
